<?xml version="1.0" encoding="UTF-8" standalone="no"?>
<svg
   xmlns:dc="http://purl.org/dc/elements/1.1/"
   xmlns:cc="http://creativecommons.org/ns#"
   xmlns:rdf="http://www.w3.org/1999/02/22-rdf-syntax-ns#"
   xmlns:svg="http://www.w3.org/2000/svg"
   xmlns="http://www.w3.org/2000/svg"
   xmlns:sodipodi="http://sodipodi.sourceforge.net/DTD/sodipodi-0.dtd"
   xmlns:inkscape="http://www.inkscape.org/namespaces/inkscape"
   width="353"
   height="184.47362"
   viewBox="0 0 93.397915 48.808646"
   version="1.1"
   id="svg28"
   sodipodi:docname="logo.svg"
   inkscape:version="0.92.4 5da689c313, 2019-01-14"
   inkscape:export-xdpi="96"
   inkscape:export-ydpi="96">
  <metadata
     id="metadata34">
    <rdf:RDF>
      <cc:Work
         rdf:about="">
        <dc:format>image/svg+xml</dc:format>
        <dc:type
           rdf:resource="http://purl.org/dc/dcmitype/StillImage" />
        <dc:title></dc:title>
      </cc:Work>
    </rdf:RDF>
  </metadata>
  <defs
     id="defs32" />
  <sodipodi:namedview
     pagecolor="#ffffff"
     bordercolor="#666666"
     borderopacity="1"
     objecttolerance="10"
     gridtolerance="10"
     guidetolerance="10"
     inkscape:pageopacity="0"
     inkscape:pageshadow="2"
     inkscape:window-width="1920"
     inkscape:window-height="1050"
     id="namedview30"
     showgrid="false"
     inkscape:zoom="1.3493784"
     inkscape:cx="36.124412"
     inkscape:cy="85.735313"
     inkscape:window-x="1920"
     inkscape:window-y="29"
     inkscape:window-maximized="0"
     inkscape:current-layer="svg28"
     fit-margin-top="0"
     fit-margin-left="0"
     fit-margin-right="0"
     fit-margin-bottom="0" />
  <path
     d="m 0.38245407,13.493411 0.165892,26.875766 38.65466293,7.797297 0.165892,-27.53937 C 20.489601,16.768185 18.922431,16.66815 0.38245407,13.493411 Z"
     id="path2"
     inkscape:connector-curvature="0"
     style="fill:none;stroke:#60008b;stroke-width:0.75932997" />
  <path
     d="M 38.278833,12.215884 C 24.56407,12.348679 6.5104071,13.435384 0.38224007,13.493321 21.536942,21.144109 18.480357,29.091782 39.203178,48.166192 c 0,0 17.963145,2.298544 18.074992,-8.026706 0.11448,-10.565629 0,-17.009539 0,-17.009539 -0.05337,-7.654511 -0.513877,-8.127416 -2.422125,-9.626017 -0.185287,-0.145508 -0.46989,-0.276131 -0.836752,-0.393829 -0.466785,3.977618 -3.836025,6.976755 -7.840935,6.979646 -4.352569,-5.17e-4 -7.884855,-3.521328 -7.899525,-7.873863 z"
     id="path4"
     inkscape:connector-curvature="0"
     style="fill:none;stroke:#60008b;stroke-width:0.84711373" />
  <path
     d="m 38.445625,12.38658 a 230.23607,230.23607 0 0 0 -1.943505,0.02008 c -6.712999,0.09683 -9.569126,0.523924 -22.025587,1.045946 -4.5633719,0.19125 -11.1939529,0.117281 -11.4373129,0.122726 -0.243383,0.0055 5.264471,0.761794 8.9421069,1.394033 3.677625,0.63225 8.3232,1.449337 10.323316,1.815187 3.530047,0.64575 16.91235,3.285968 17.338106,3.420664 0.202781,0.06415 0.208395,0.629291 0.128295,13.775209 l -0.08368,13.70826 0.282825,0.06471 c 0.155453,0.03578 0.651758,0.08527 1.1034,0.10989 0.451643,0.02464 1.765587,0.0237 2.919713,-0.0023 5.344762,-0.12015 8.82765,-1.15767 10.935821,-3.257764 0.897919,-0.894487 1.342058,-1.642174 1.661794,-2.797549 0.18504,-0.668621 0.201949,-1.652512 0.197482,-11.465212 -0.0051,-11.324835 -0.05816,-12.720263 -0.543892,-14.292866 -0.284591,-0.921398 -1.108834,-1.860975 -2.019375,-2.3022 -0.04552,-0.02205 -0.102803,-0.04347 -0.152843,-0.06527 a 7.9004925,7.9004925 0 0 1 -7.737187,6.308032 7.9004925,7.9004925 0 0 1 -7.889479,-7.601625 z"
     id="path6"
     inkscape:connector-curvature="0"
     style="opacity:0.98999999;fill:#60008b;stroke:#60008b;stroke-width:0.42751127;stroke-linecap:round;paint-order:markers fill stroke" />
  <path
     d="M 1.4978241,14.85942 V 39.43563 L 38.156849,46.88475 V 21.663341 Z"
     id="path8"
     inkscape:connector-curvature="0"
     style="fill:none;stroke:#60008b;stroke-width:0.23225626" />
  <path
     d="M 19.873843,43.853392 C 9.4861441,41.757484 0.98048107,40.036492 0.97238107,40.028955 c -0.017325,-0.01609 -0.190024,-26.039801 -0.172867,-26.048576 0.01204,-0.0061 12.62144193,2.135227 15.73101993,2.671526 4.974435,0.857914 10.035361,1.813804 16.77518,3.168461 2.419492,0.486304 4.682812,0.94113 5.029616,1.010734 l 0.630529,0.12654 -0.0011,0.295695 c -0.01813,4.27743 -0.1746,26.3862 -0.186818,26.396415 -0.0095,0.0079 -8.51625,-1.70046 -18.903938,-3.796358 z M 38.32066,34.290701 V 21.547039 L 19.888502,18.128771 C 9.7508231,16.248739 1.4365561,14.711696 1.4123571,14.713159 c -0.02419,0.0014 -0.04397,5.591655 -0.04396,12.4227 l 2.2e-5,12.420078 18.3441369,3.733358 c 10.089294,2.05335 18.403539,3.736001 18.476124,3.739219 l 0.131973,0.0059 z"
     id="path10"
     inkscape:connector-curvature="0"
     style="fill:#60008b;stroke:#60008b;stroke-width:0.30260247;stroke-linecap:round" />
  <path
     d="M 0.85262507,22.543159 38.346252,30.710632 m -37.1416929,0.102795 37.7849359,8.19808"
     id="path12"
     inkscape:connector-curvature="0"
     style="fill:none;stroke:#60008b;stroke-width:1.46160007" />
  <path
     d="M 19.745076,25.89585 C 9.7993891,23.712484 1.6526691,21.924814 1.6412611,21.923284 c -0.01139,-0.0017 -0.02073,-1.556235 -0.02073,-3.454898 0,-3.269137 0.0078,-3.450037 0.147656,-3.413475 0.08123,0.02123 8.2745889,1.546684 18.2074949,3.389884 l 18.059839,3.351262 v 4.043813 c 0,3.18456 -0.02201,4.0419 -0.10368,4.03479 -0.05704,-0.005 -8.241075,-1.79541 -18.186762,-3.978788 z"
     id="path14"
     inkscape:connector-curvature="0"
     style="fill:#ff95ff;stroke:#60008b;stroke-width:0.52231503;stroke-linecap:square;stroke-linejoin:bevel;paint-order:stroke markers fill" />
  <path
     d="M 19.807288,42.997267 1.6205391,39.302194 v -3.796819 c 0,-2.088248 0.01873,-3.796808 0.04167,-3.796808 0.09461,0 36.3201639,7.882369 36.3464769,7.908683 0.01575,0.01575 0.0189,1.614105 0.007,3.551884 l -0.02164,3.523218 z"
     id="path16"
     inkscape:connector-curvature="0"
     style="fill:#ff95ff;stroke:#60008b;stroke-width:0.52199996;stroke-linecap:round;paint-order:stroke markers fill" />
  <path
     d="m 46.25254,5.8186159 a 6.1448287,6.1448287 0 0 0 -6.145121,6.1451331 6.1448287,6.1448287 0 0 0 6.145121,6.144558 6.1448287,6.1448287 0 0 0 6.14457,-6.144558 6.1448287,6.1448287 0 0 0 -6.14457,-6.1451331 z m -0.998527,1.772246 a 2.1067875,2.1067875 0 0 1 2.106956,2.106957 2.1067875,2.1067875 0 0 1 -2.106956,2.1069451 2.1067875,2.1067875 0 0 1 -2.106945,-2.1069451 2.1067875,2.1067875 0 0 1 2.106945,-2.106957 z"
     id="path18"
     inkscape:connector-curvature="0"
     style="fill:#d73939;stroke-width:1.125;paint-order:stroke markers fill" />
  <g
     id="g24"
     transform="matrix(1.125,0,0,1.125,-1.7355159,-0.21862896)"
     style="fill:#26ff61">
    <path
       d="M 44.32318,0.90107 A 6.5686,6.5686 0 0 0 43.90059,0.92318 C 43.8281,3.0637 44.76639,4.2468 45.98742,4.79938 46.0255,3.76076 46.35383,2.71488 47.1117,1.90221 46.54698,1.30479 45.67319,0.87439 44.32318,0.90107 Z"
       id="path20"
       inkscape:connector-curvature="0" />
    <path
       d="M 46.5812,5.63363 C 46.39314,3.61408 47.29076,1.26945 50.60586,1.18528 51.27496,5.80895 46.5812,5.63363 46.5812,5.63363 Z"
       id="path22"
       inkscape:connector-curvature="0" />
  </g>
  <path
     d="M 19.709683,34.048646 1.6780711,30.120214 1.6517011,26.806785 c -0.02498,-3.137963 -0.01692,-3.310954 0.152381,-3.266674 0.09833,0.02571 8.2694919,1.817044 18.1581519,3.980745 l 17.979391,3.934013 0.02645,3.27294 c 0.02094,2.5893 -3.4e-5,3.270465 -0.10017,3.261082 -0.06953,-0.0065 -8.240805,-1.779637 -18.158187,-3.940267 z"
     id="path26"
     inkscape:connector-curvature="0"
     style="fill:#ff7e0a;stroke:#d753b7;stroke-width:0.22527;stroke-linecap:square;stroke-linejoin:bevel;paint-order:stroke markers fill" />
  <flowRoot
     xml:space="preserve"
     id="flowRoot815"
     style="font-style:normal;font-weight:normal;font-size:40px;line-height:1.25;font-family:sans-serif;letter-spacing:0px;word-spacing:0px;fill:#f9f9f9;fill-opacity:1;stroke:#f9f9f9;stroke-width:1.51175344;stroke-linecap:round;stroke-linejoin:miter;stroke-miterlimit:4;stroke-dasharray:none;stroke-dashoffset:0;stroke-opacity:1;paint-order:markers fill stroke"
     transform="matrix(0.57827977,0,0,0.57827977,-159.31728,-92.16832)"
     inkscape:export-xdpi="96"
     inkscape:export-ydpi="96"><flowRegion
       id="flowRegion817"
       style="fill:#f9f9f9;fill-opacity:1;stroke:#f9f9f9;stroke-width:1.51175344;stroke-linecap:round;stroke-linejoin:miter;stroke-miterlimit:4;stroke-dasharray:none;stroke-dashoffset:0;stroke-opacity:1;paint-order:markers fill stroke"><rect
         id="rect819"
         width="447.14285"
         height="222.85715"
         x="275.71429"
         y="182.51968"
         style="fill:#f9f9f9;fill-opacity:1;stroke:#f9f9f9;stroke-width:1.51175344;stroke-linecap:round;stroke-linejoin:miter;stroke-miterlimit:4;stroke-dasharray:none;stroke-dashoffset:0;stroke-opacity:1;paint-order:markers fill stroke" /></flowRegion><flowPara
       id="flowPara821"
       style="font-style:normal;font-variant:normal;font-weight:bold;font-stretch:normal;font-size:40px;font-family:Inconsolata;-inkscape-font-specification:'Inconsolata, Bold';font-variant-ligatures:normal;font-variant-caps:normal;font-variant-numeric:normal;font-feature-settings:normal;text-align:start;writing-mode:lr-tb;text-anchor:start;fill:#f9f9f9;fill-opacity:1;stroke:#f9f9f9;stroke-width:1.51175344;stroke-linecap:round;stroke-linejoin:miter;stroke-miterlimit:4;stroke-dasharray:none;stroke-dashoffset:0;stroke-opacity:1;paint-order:markers fill stroke"><flowSpan
         style="fill:#f9f9f9;fill-opacity:1;stroke:#f9f9f9;stroke-width:1.51175344;stroke-miterlimit:4;stroke-dasharray:none;stroke-opacity:1"
         id="flowSpan957">cakey</flowSpan><flowSpan
         style="font-style:normal;font-variant:normal;font-weight:bold;font-stretch:normal;font-size:40px;font-family:Inconsolata;-inkscape-font-specification:'Inconsolata, Bold';font-variant-ligatures:normal;font-variant-caps:normal;font-variant-numeric:normal;font-feature-settings:normal;text-align:start;writing-mode:lr-tb;text-anchor:start;fill:#f9f9f9;fill-opacity:1;stroke:#f9f9f9;stroke-width:1.51175344;stroke-linecap:round;stroke-linejoin:miter;stroke-miterlimit:4;stroke-dasharray:none;stroke-dashoffset:0;stroke-opacity:1;paint-order:markers fill stroke"
         id="flowSpan823" /></flowPara></flowRoot>  <flowRoot
     xml:space="preserve"
     id="flowRoot815-3"
     style="font-style:normal;font-weight:normal;font-size:40px;line-height:1.25;font-family:sans-serif;letter-spacing:0px;word-spacing:0px;fill:#000000;fill-opacity:1;stroke:url(#meshgradient992);stroke-width:1.51181102;stroke-linecap:round;stroke-linejoin:miter;stroke-miterlimit:4;stroke-dasharray:none;stroke-dashoffset:0;paint-order:markers fill stroke"
     transform="matrix(0.57827977,0,0,0.57827977,-100.91092,-92.050855)"><flowRegion
       id="flowRegion817-6"
       style="stroke:url(#meshgradient978);stroke-width:1.51181102;stroke-linecap:round;stroke-linejoin:miter;stroke-miterlimit:4;stroke-dasharray:none;stroke-dashoffset:0;paint-order:markers fill stroke"><rect
         id="rect819-8"
         width="447.14285"
         height="222.85715"
         x="275.71429"
         y="182.51968"
         style="stroke:url(#meshgradient964);stroke-width:1.51181102;stroke-linecap:round;stroke-linejoin:miter;stroke-miterlimit:4;stroke-dasharray:none;stroke-dashoffset:0;paint-order:markers fill stroke" /></flowRegion><flowPara
       id="flowPara821-0"
       style="font-style:normal;font-variant:normal;font-weight:bold;font-stretch:normal;font-size:40px;font-family:Inconsolata;-inkscape-font-specification:'Inconsolata, Bold';font-variant-ligatures:normal;font-variant-caps:normal;font-variant-numeric:normal;font-feature-settings:normal;text-align:start;writing-mode:lr-tb;text-anchor:start;fill:none;stroke:#000000;stroke-width:1.51181102;stroke-linecap:round;stroke-linejoin:miter;stroke-miterlimit:4;stroke-dasharray:none;stroke-dashoffset:0;stroke-opacity:1;paint-order:markers fill stroke"><flowSpan
         style="font-style:normal;font-variant:normal;font-weight:bold;font-stretch:normal;font-size:40px;font-family:Inconsolata;-inkscape-font-specification:'Inconsolata, Bold';font-variant-ligatures:normal;font-variant-caps:normal;font-variant-numeric:normal;font-feature-settings:normal;text-align:start;writing-mode:lr-tb;text-anchor:start;fill:#ff9ae3;fill-opacity:1;stroke:#ff9ae3;stroke-width:1.51181102;stroke-linecap:round;stroke-linejoin:miter;stroke-miterlimit:4;stroke-dasharray:none;stroke-dashoffset:0;stroke-opacity:1;paint-order:markers fill stroke"
         id="flowSpan823-1">bar</flowSpan></flowPara></flowRoot></svg>
