<?xml version="1.0" encoding="UTF-8" standalone="no"?>
<svg
   xmlns:dc="http://purl.org/dc/elements/1.1/"
   xmlns:cc="http://creativecommons.org/ns#"
   xmlns:rdf="http://www.w3.org/1999/02/22-rdf-syntax-ns#"
   xmlns:svg="http://www.w3.org/2000/svg"
   xmlns="http://www.w3.org/2000/svg"
   xmlns:sodipodi="http://sodipodi.sourceforge.net/DTD/sodipodi-0.dtd"
   xmlns:inkscape="http://www.inkscape.org/namespaces/inkscape"
   width="466.21542"
   height="241.96483"
   viewBox="0 0 123.35283 64.019864"
   version="1.1"
   id="svg28"
   sodipodi:docname="logo.svg"
   inkscape:version="0.92.4 5da689c313, 2019-01-14"
   inkscape:export-xdpi="96"
   inkscape:export-ydpi="96"
   inkscape:export-filename="/home/cake/dev/cakeybar/misc/logo.svg.png">
  <metadata
     id="metadata34">
    <rdf:RDF>
      <cc:Work
         rdf:about="">
        <dc:format>image/svg+xml</dc:format>
        <dc:type
           rdf:resource="http://purl.org/dc/dcmitype/StillImage" />
        <dc:title></dc:title>
      </cc:Work>
    </rdf:RDF>
  </metadata>
  <defs
     id="defs32" />
  <sodipodi:namedview
     pagecolor="#ffffff"
     bordercolor="#666666"
     borderopacity="1"
     objecttolerance="10"
     gridtolerance="10"
     guidetolerance="10"
     inkscape:pageopacity="0"
     inkscape:pageshadow="2"
     inkscape:window-width="1920"
     inkscape:window-height="1050"
     id="namedview30"
     showgrid="false"
     inkscape:zoom="1.3493784"
     inkscape:cx="19.750323"
     inkscape:cy="85.735327"
     inkscape:window-x="1920"
     inkscape:window-y="29"
     inkscape:window-maximized="0"
     inkscape:current-layer="svg28"
     fit-margin-top="0"
     fit-margin-left="0"
     fit-margin-right="0"
     fit-margin-bottom="0" />
  <path
     d="M 18.859881,21.455994 19.014714,46.540042 55.0924,53.817519 55.247233,28.114107 C 37.626552,24.512449 36.16386,24.419083 18.859881,21.455994 Z"
     id="path2"
     inkscape:connector-curvature="0"
     style="fill:none;stroke:#60008b;stroke-width:0.70870799"
     inkscape:export-xdpi="96"
     inkscape:export-ydpi="96" />
  <path
     d="m 54.229835,20.263635 c -12.800445,0.123942 -29.65053,1.1382 -35.370153,1.192275 19.744388,7.140735 16.891576,14.558563 36.232875,32.361346 0,0 16.765602,2.145308 16.869993,-7.491592 0.106848,-9.861254 0,-15.87557 0,-15.87557 -0.04981,-7.14421 -0.479619,-7.585588 -2.26065,-8.984283 -0.172935,-0.135807 -0.438564,-0.257722 -0.780969,-0.367573 -0.435666,3.712443 -3.58029,6.511638 -7.318206,6.514336 -4.062397,-4.83e-4 -7.359198,-3.286573 -7.37289,-7.348939 z"
     id="path4"
     inkscape:connector-curvature="0"
     style="fill:none;stroke:#60008b;stroke-width:0.79063952"
     inkscape:export-xdpi="96"
     inkscape:export-ydpi="96" />
  <path
     d="m 54.385508,20.422951 a 214.887,214.887 0 0 0 -1.813938,0.01875 c -6.265465,0.09037 -8.931184,0.488996 -20.557215,0.976217 -4.259147,0.1785 -10.447689,0.109462 -10.674825,0.114544 -0.227157,0.0051 4.913506,0.711008 8.345966,1.301097 3.43245,0.5901 7.76832,1.352715 9.635095,1.694175 3.294711,0.6027 15.78486,3.066903 16.182233,3.19262 0.189262,0.05987 0.194502,0.587338 0.119742,12.856861 l -0.0781,12.794376 0.26397,0.0604 c 0.145089,0.0334 0.608307,0.07959 1.02984,0.102564 0.421533,0.023 1.64788,0.02212 2.725065,-0.0021 4.988445,-0.11214 8.23914,-1.080492 10.206766,-3.040579 0.838058,-0.834855 1.252587,-1.532696 1.551008,-2.611046 0.172704,-0.624046 0.188485,-1.542345 0.184317,-10.700865 -0.0048,-10.569846 -0.05428,-11.872245 -0.507633,-13.340008 -0.265619,-0.859971 -1.034912,-1.73691 -1.88475,-2.14872 -0.04248,-0.02058 -0.09595,-0.04057 -0.142653,-0.06091 a 7.373793,7.373793 0 0 1 -7.221375,5.887497 7.373793,7.373793 0 0 1 -7.363514,-7.09485 z"
     id="path6"
     inkscape:connector-curvature="0"
     style="opacity:0.98999999;fill:#60008b;stroke:#60008b;stroke-width:0.39901051;stroke-linecap:round;paint-order:markers fill stroke"
     inkscape:export-xdpi="96"
     inkscape:export-ydpi="96" />
  <path
     d="m 19.900893,22.730935 v 22.937796 l 34.215091,6.952512 V 29.081262 Z"
     id="path8"
     inkscape:connector-curvature="0"
     style="fill:none;stroke:#60008b;stroke-width:0.21677251"
     inkscape:export-xdpi="96"
     inkscape:export-ydpi="96" />
  <path
     d="M 37.051845,49.791976 C 27.356659,47.835795 19.41804,46.229536 19.41048,46.222501 19.39431,46.207479 19.233125,21.918687 19.249137,21.910497 c 0.01123,-0.0057 11.780013,1.992879 14.682286,2.493424 4.642806,0.80072 9.366337,1.692884 15.656835,2.957231 2.258193,0.453883 4.370625,0.878388 4.694308,0.943351 l 0.588494,0.118104 -10e-4,0.275982 c -0.01693,3.992268 -0.16296,24.62712 -0.174363,24.636654 -0.0088,0.0074 -7.9485,-1.587096 -17.643676,-3.543267 z M 54.268874,40.866798 V 28.972713 L 37.065526,25.78233 C 27.603693,24.027633 19.84371,22.59306 19.821125,22.594425 c -0.02257,0.0013 -0.04104,5.218878 -0.04103,11.59452 l 2.1e-5,11.592073 17.121194,3.484467 c 9.416674,1.91646 17.176636,3.486935 17.244382,3.489938 l 0.123176,0.0055 z"
     id="path10"
     inkscape:connector-curvature="0"
     style="fill:#60008b;stroke:#60008b;stroke-width:0.28242898;stroke-linecap:round"
     inkscape:export-xdpi="96"
     inkscape:export-ydpi="96" />
  <path
     d="M 19.298708,29.902425 54.29276,37.5254 m -34.665581,0.09594 35.265941,7.651541"
     id="path12"
     inkscape:connector-curvature="0"
     style="fill:none;stroke:#60008b;stroke-width:1.36416006"
     inkscape:export-xdpi="96"
     inkscape:export-ydpi="96" />
  <path
     d="m 36.931662,33.031603 c -9.282641,-2.037808 -16.886247,-3.7063 -16.896894,-3.707728 -0.01063,-0.0015 -0.01935,-1.452486 -0.01935,-3.224571 0,-3.051195 0.0073,-3.220035 0.137813,-3.18591 0.07581,0.01981 7.722949,1.443571 16.993661,3.163891 l 16.855851,3.127845 v 3.774225 c 0,2.972256 -0.02054,3.77244 -0.09677,3.765804 -0.05324,-0.0047 -7.69167,-1.675716 -16.974312,-3.713535 z"
     id="path14"
     inkscape:connector-curvature="0"
     style="fill:#ff95ff;stroke:#60008b;stroke-width:0.48749402;stroke-linecap:square;stroke-linejoin:bevel;paint-order:stroke markers fill"
     inkscape:export-xdpi="96"
     inkscape:export-ydpi="96" />
  <path
     d="m 36.989727,48.992926 -16.9743,-3.448735 v -3.543698 c 0,-1.949031 0.01748,-3.543687 0.03889,-3.543687 0.08831,0 33.89882,7.356878 33.92338,7.381437 0.0147,0.0147 0.01764,1.506498 0.0066,3.315092 l -0.0202,3.288337 z"
     id="path16"
     inkscape:connector-curvature="0"
     style="fill:#ff95ff;stroke:#60008b;stroke-width:0.48719999;stroke-linecap:round;paint-order:stroke markers fill"
     inkscape:export-xdpi="96"
     inkscape:export-ydpi="96" />
  <path
     d="m 61.671962,14.292852 a 5.7351735,5.7351735 0 0 0 -5.735446,5.735457 5.7351735,5.7351735 0 0 0 5.735446,5.734921 5.7351735,5.7351735 0 0 0 5.734932,-5.734921 5.7351735,5.7351735 0 0 0 -5.734932,-5.735457 z m -0.931959,1.654096 a 1.966335,1.966335 0 0 1 1.966493,1.966493 1.966335,1.966335 0 0 1 -1.966493,1.966482 1.966335,1.966335 0 0 1 -1.966482,-1.966482 1.966335,1.966335 0 0 1 1.966482,-1.966493 z"
     id="path18"
     inkscape:connector-curvature="0"
     style="fill:#d73939;stroke-width:1.04999995;paint-order:stroke markers fill"
     inkscape:export-xdpi="96"
     inkscape:export-ydpi="96" />
  <g
     id="g24"
     transform="matrix(1.05,0,0,1.05,16.883109,8.6580899)"
     style="fill:#26ff61"
     inkscape:export-xdpi="96"
     inkscape:export-ydpi="96">
    <path
       d="M 44.32318,0.90107 A 6.5686,6.5686 0 0 0 43.90059,0.92318 C 43.8281,3.0637 44.76639,4.2468 45.98742,4.79938 46.0255,3.76076 46.35383,2.71488 47.1117,1.90221 46.54698,1.30479 45.67319,0.87439 44.32318,0.90107 Z"
       id="path20"
       inkscape:connector-curvature="0" />
    <path
       d="M 46.5812,5.63363 C 46.39314,3.61408 47.29076,1.26945 50.60586,1.18528 51.27496,5.80895 46.5812,5.63363 46.5812,5.63363 Z"
       id="path22"
       inkscape:connector-curvature="0" />
  </g>
  <path
     d="m 36.898629,40.64088 -16.829505,-3.666537 -0.02461,-3.092534 c -0.02332,-2.928765 -0.01579,-3.090223 0.142223,-3.048895 0.09177,0.024 7.718192,1.695907 16.947608,3.715362 l 16.780765,3.671745 0.02468,3.054744 c 0.01954,2.41668 -3.1e-5,3.052434 -0.09349,3.043677 -0.0649,-0.0061 -7.691418,-1.660995 -16.947641,-3.677583 z"
     id="path26"
     inkscape:connector-curvature="0"
     style="fill:#ff7e0a;stroke:#d753b7;stroke-width:0.210252;stroke-linecap:square;stroke-linejoin:bevel;paint-order:stroke markers fill"
     inkscape:export-xdpi="96"
     inkscape:export-ydpi="96" />
  <flowRoot
     xml:space="preserve"
     id="flowRoot815"
     style="font-style:normal;font-weight:normal;font-size:40px;line-height:1.25;font-family:sans-serif;letter-spacing:0px;word-spacing:0px;fill:#f9f9f9;fill-opacity:1;stroke:#f9f9f9;stroke-width:1.51175344;stroke-linecap:round;stroke-linejoin:miter;stroke-miterlimit:4;stroke-dasharray:none;stroke-dashoffset:0;stroke-opacity:1;paint-order:markers fill stroke"
     transform="matrix(0.53972778,0,0,0.53972778,-130.19321,-77.161622)"
     inkscape:export-xdpi="96"
     inkscape:export-ydpi="96"><flowRegion
       id="flowRegion817"
       style="fill:#f9f9f9;fill-opacity:1;stroke:#f9f9f9;stroke-width:1.51175344;stroke-linecap:round;stroke-linejoin:miter;stroke-miterlimit:4;stroke-dasharray:none;stroke-dashoffset:0;stroke-opacity:1;paint-order:markers fill stroke"><rect
         id="rect819"
         width="447.14285"
         height="222.85715"
         x="275.71429"
         y="182.51968"
         style="fill:#f9f9f9;fill-opacity:1;stroke:#f9f9f9;stroke-width:1.51175344;stroke-linecap:round;stroke-linejoin:miter;stroke-miterlimit:4;stroke-dasharray:none;stroke-dashoffset:0;stroke-opacity:1;paint-order:markers fill stroke" /></flowRegion><flowPara
       id="flowPara821"
       style="font-style:normal;font-variant:normal;font-weight:bold;font-stretch:normal;font-size:40px;font-family:Inconsolata;-inkscape-font-specification:'Inconsolata, Bold';font-variant-ligatures:normal;font-variant-caps:normal;font-variant-numeric:normal;font-feature-settings:normal;text-align:start;writing-mode:lr-tb;text-anchor:start;fill:#f9f9f9;fill-opacity:1;stroke:#f9f9f9;stroke-width:1.51175344;stroke-linecap:round;stroke-linejoin:miter;stroke-miterlimit:4;stroke-dasharray:none;stroke-dashoffset:0;stroke-opacity:1;paint-order:markers fill stroke"><flowSpan
         style="fill:#f9f9f9;fill-opacity:1;stroke:#f9f9f9;stroke-width:1.51175344;stroke-miterlimit:4;stroke-dasharray:none;stroke-opacity:1"
         id="flowSpan957">cakey</flowSpan><flowSpan
         style="font-style:normal;font-variant:normal;font-weight:bold;font-stretch:normal;font-size:40px;font-family:Inconsolata;-inkscape-font-specification:'Inconsolata, Bold';font-variant-ligatures:normal;font-variant-caps:normal;font-variant-numeric:normal;font-feature-settings:normal;text-align:start;writing-mode:lr-tb;text-anchor:start;fill:#f9f9f9;fill-opacity:1;stroke:#f9f9f9;stroke-width:1.51175344;stroke-linecap:round;stroke-linejoin:miter;stroke-miterlimit:4;stroke-dasharray:none;stroke-dashoffset:0;stroke-opacity:1;paint-order:markers fill stroke"
         id="flowSpan823" /></flowPara></flowRoot>  <flowRoot
     xml:space="preserve"
     id="flowRoot815-3"
     style="font-style:normal;font-weight:normal;font-size:40px;line-height:1.25;font-family:sans-serif;letter-spacing:0px;word-spacing:0px;fill:#000000;fill-opacity:1;stroke:url(#meshgradient992);stroke-width:1.51181102;stroke-linecap:round;stroke-linejoin:miter;stroke-miterlimit:4;stroke-dasharray:none;stroke-dashoffset:0;paint-order:markers fill stroke"
     transform="matrix(0.53972778,0,0,0.53972778,-75.680606,-77.051988)"
     inkscape:export-xdpi="96"
     inkscape:export-ydpi="96"><flowRegion
       id="flowRegion817-6"
       style="stroke:url(#meshgradient978);stroke-width:1.51181102;stroke-linecap:round;stroke-linejoin:miter;stroke-miterlimit:4;stroke-dasharray:none;stroke-dashoffset:0;paint-order:markers fill stroke"><rect
         id="rect819-8"
         width="447.14285"
         height="222.85715"
         x="275.71429"
         y="182.51968"
         style="stroke:url(#meshgradient964);stroke-width:1.51181102;stroke-linecap:round;stroke-linejoin:miter;stroke-miterlimit:4;stroke-dasharray:none;stroke-dashoffset:0;paint-order:markers fill stroke" /></flowRegion><flowPara
       id="flowPara821-0"
       style="font-style:normal;font-variant:normal;font-weight:bold;font-stretch:normal;font-size:40px;font-family:Inconsolata;-inkscape-font-specification:'Inconsolata, Bold';font-variant-ligatures:normal;font-variant-caps:normal;font-variant-numeric:normal;font-feature-settings:normal;text-align:start;writing-mode:lr-tb;text-anchor:start;fill:none;stroke:#000000;stroke-width:1.51181102;stroke-linecap:round;stroke-linejoin:miter;stroke-miterlimit:4;stroke-dasharray:none;stroke-dashoffset:0;stroke-opacity:1;paint-order:markers fill stroke"><flowSpan
         style="font-style:normal;font-variant:normal;font-weight:bold;font-stretch:normal;font-size:40px;font-family:Inconsolata;-inkscape-font-specification:'Inconsolata, Bold';font-variant-ligatures:normal;font-variant-caps:normal;font-variant-numeric:normal;font-feature-settings:normal;text-align:start;writing-mode:lr-tb;text-anchor:start;fill:#ff9ae3;fill-opacity:1;stroke:#ff9ae3;stroke-width:1.51181102;stroke-linecap:round;stroke-linejoin:miter;stroke-miterlimit:4;stroke-dasharray:none;stroke-dashoffset:0;stroke-opacity:1;paint-order:markers fill stroke"
         id="flowSpan823-1">bar</flowSpan></flowPara></flowRoot></svg>
