<?xml version="1.0" encoding="UTF-8" standalone="no"?>
<!--
     Icon originally made by http://www.freepik.com for https://www.flaticon.com (sweet-cake-piece)
-->
<svg xmlns="http://www.w3.org/2000/svg" width="15" height="15" viewBox="0 0 57.708 59.36">
  <path d="M55.504 28.074c-1.616-4.016-3.2-8.998-7.682-10.607-2.087-.933-3.851-.235-3.086 2.185-.165 6.165-5.675 11.539-11.842 11.548-5.284.223-10.403-3.443-11.912-8.508-6.78 1.599-13.612 3.04-20.36 4.737-1.025.743-.436 2.199-.593 3.287.03 7.306-.06 14.62.045 21.92.795 2.026 3.275 1.559 5.018 1.883 15.534 1.598 31.062 3.268 46.6 4.823 2.887.236 6.484-1.847 5.913-5.127.09-1.779-2.509-3.28-2.6-4.055 2.479-.938 3.487-4.231 1.837-6.344-.57-1.315-3.342-2.004-.882-2.775 2.71-2.407 1.686-6.482.786-9.501-.366-1.172-.8-2.321-1.242-3.466zM43.824 54.67L4.716 50.599v-3.91c13.373 1.407 26.752 2.754 40.12 4.198 1.786.39 6.393.881 5.112 3.224-1.894.88-4.093.713-6.124.56zm0-7.792L4.716 42.807v-3.912c13.373 1.409 26.752 2.758 40.12 4.203 1.786.39 6.393.882 5.112 3.225-1.894.878-4.094.71-6.124.556zm-.629-8.168c-13.036-1.357-25.443-2.336-38.479-3.692v-3.912c13.373 1.406 26.752 2.753 40.12 4.197 1.787.39 6.393.884 5.112 3.228-1.894.88-4.723.331-6.753.179z" fill="#a363ff"/>
  <path d="M24.173 19.04c-.073 3.835 2.828 7.443 6.582 8.214 3.702.892 7.823-1.107 9.416-4.566 1.725-3.43.678-7.94-2.38-10.26-1.807-1.442-4.226-2.068-6.506-1.702-1.914-3.71-4.678-7.018-8.05-9.488-1.036-.76-3.087-2.143-3.868-.385-.48 1.859 1.987 1.978 2.919 3.046 2.606 2.107 4.812 4.729 6.383 7.693-2.728 1.412-4.527 4.372-4.496 7.448z" fill="#d80027"/>
</svg>
