<?xml version="1.0" encoding="UTF-8" standalone="no"?>
<!--part of the rodentia icon theme by sixsixfive released under CC0 (https://creativecommons.org/publicdomain/zero/1.0/) on openclipart-->
<svg xmlns="http://www.w3.org/2000/svg" xmlns:xlink="http://www.w3.org/1999/xlink" viewBox="0 0 48 48">
 <defs id="0">
  <linearGradient id="2">
   <stop id="V" stop-color="#edd400"/>
   <stop id="W" offset="1" stop-color="#c4a000"/>
  </linearGradient>
  <linearGradient id="3">
   <stop id="X" stop-color="#fff" stop-opacity="0.8"/>
   <stop id="Y" offset="1" stop-color="#fff" stop-opacity="0"/>
  </linearGradient>
  <linearGradient id="4">
   <stop id="Z" stop-color="#888a85"/>
   <stop id="a" offset="1" stop-color="#555753"/>
  </linearGradient>
  <linearGradient id="5">
   <stop id="b" stop-color="#fff"/>
   <stop id="c" offset="1" stop-color="#fff" stop-opacity="0"/>
  </linearGradient>
  <linearGradient id="6">
   <stop id="d" stop-color="#2e3436"/>
   <stop id="e" offset="1" stop-color="#2e3436" stop-opacity="0"/>
  </linearGradient>
  <linearGradient id="7">
   <stop id="f" stop-color="#d3d7cf"/>
   <stop id="g" offset="1" stop-color="#888a85"/>
  </linearGradient>
  <linearGradient id="8">
   <stop id="h" stop-color="#555753"/>
   <stop id="i" offset="1" stop-color="#2e3436"/>
  </linearGradient>
  <radialGradient cx="28.28" cy="41.872" r="13.954" id="9" xlink:href="#6" gradientUnits="userSpaceOnUse" gradientTransform="matrix(1,0,0,0.2635135,0,30.837973)"/>
  <linearGradient x1="174.75" x2="167.49" id="A" xlink:href="#4" gradientUnits="userSpaceOnUse"/>
  <linearGradient y1="-18.19" x2="0" y2="-6.937" id="B" xlink:href="#7" gradientUnits="userSpaceOnUse"/>
  <linearGradient x1="173.65" x2="167.61" id="C" xlink:href="#3" gradientUnits="userSpaceOnUse"/>
  <linearGradient y1="-27.969" x2="0" y2="2.844" id="D" xlink:href="#8" gradientUnits="userSpaceOnUse"/>
  <linearGradient y1="1.656" x2="0" y2="-26.781" id="E" xlink:href="#4" gradientUnits="userSpaceOnUse"/>
  <linearGradient x1="171.17" x2="127.39" id="F" xlink:href="#3" gradientUnits="userSpaceOnUse"/>
  <linearGradient x1="9.03" y1="-11.983" x2="19.757" y2="25.06" id="G" xlink:href="#5" gradientUnits="userSpaceOnUse"/>
  <linearGradient x1="170.91" x2="167.42" id="H" xlink:href="#3" gradientUnits="userSpaceOnUse" gradientTransform="matrix(0,-0.7960573,1.0530277,0,37.228661,157.37423)"/>
  <linearGradient y1="1.656" x2="0" y2="-26.781" id="I" xlink:href="#2" gradientUnits="userSpaceOnUse" gradientTransform="matrix(0,-0.7960573,1.0530277,0,37.228661,157.37406)"/>
 </defs>
 <g id="1">
  <path d="m 42.237845,41.871742 a 13.953574,3.6769552 0 1 1 -27.907148,0 13.953574,3.6769552 0 1 1 27.907148,0 z" transform="matrix(1.5194486,0,0.09655391,1.762892,-23.019377,-32.917434)" id="J" opacity="0.575" fill="url(#9)"/>
  <path d="m 158.5625,-19.3125 c -0.57851,0 -1.03978,0.311036 -1.28125,0.5625 -0.24147,0.251464 -0.36367,0.460907 -0.46875,0.6875 -0.21017,0.453186 -0.33063,0.921974 -0.4375,1.46875 -0.21374,1.093551 -0.3125,2.488577 -0.3125,4.03125 0,1.542674 0.0988,2.9376996 0.3125,4.03125 0.10687,0.5467752 0.22733,1.0155664 0.4375,1.46875 0.10508,0.2265918 0.22728,0.4360364 0.46875,0.6875 0.24147,0.2514636 0.70273,0.5625 1.28125,0.5625 l 13.71875,0 c 0.57851,0 1.03988,-0.3079012 1.28125,-0.5625 0.24137,-0.2545988 0.36584,-0.4914504 0.46875,-0.71875 0.20582,-0.4545992 0.30408,-0.9231282 0.40625,-1.46875 0.20435,-1.0912436 0.3125,-2.46258 0.3125,-4 0,-1.53742 -0.10815,-2.908756 -0.3125,-4 -0.10217,-0.545622 -0.20043,-1.014151 -0.40625,-1.46875 -0.10291,-0.2273 -0.22738,-0.464151 -0.46875,-0.71875 -0.24137,-0.254599 -0.70274,-0.5625 -1.28125,-0.5625 l -13.71875,0 z" transform="matrix(0,-0.9408823,1.0472425,0,37.155984,166.84421)" id="K" fill="url(#A)"/>
  <path d="M 158.46875,-18.1875 A 0.53251799,0.53251799 0 0 0 158.1875,-18 a 0.53251799,0.53251799 0 0 0 -0.0312,0 c -0.008,0.0075 0.005,0.02632 0,0.03125 a 0.53251799,0.53251799 0 0 0 -0.0312,0.03125 0.53251799,0.53251799 0 0 0 -0.0312,0.03125 c -0.009,0.0078 -0.008,0.04187 -0.0312,0.0625 -0.008,0.0069 -0.0198,-0.01069 -0.0312,0 -0.0688,0.06416 -0.14394,0.187319 -0.1875,0.28125 -0.1489,0.321046 -0.27483,0.675003 -0.375,1.1875 -0.1921,0.982822 -0.28125,2.317179 -0.28125,3.8125 0,1.495322 0.0891,2.829678 0.28125,3.8125 0.10017,0.5124975 0.2261,0.8664544 0.375,1.1875 0.0436,0.093943 0.11872,0.2170905 0.1875,0.28125 0.0229,0.021387 0.0213,0.022746 0.0312,0.03125 a 0.53251799,0.53251799 0 0 0 0.0312,0.03125 c 0.006,0.00519 0.0203,0.019805 0.0312,0.03125 -0.002,-0.00242 0.0335,0.030338 0.0312,0.03125 -0.002,9.121e-4 0.007,0.012994 0.0312,0.03125 a 0.53251799,0.53251799 0 0 0 0.375,0.1875 l 13.71875,0 a 0.53251799,0.53251799 0 0 0 0.28125,-0.09375 0.53251799,0.53251799 0 0 0 0.0312,0 c 0.013,-0.00765 -0.01,-0.02481 0,-0.03125 0.0343,-0.02254 0.0539,-0.019692 0.0625,-0.03125 -8e-5,5.86e-5 0.0314,-0.031353 0.0312,-0.03125 a 0.53251799,0.53251799 0 0 0 0.0312,-0.03125 c 0.005,-0.00559 -0.002,-0.029298 0,-0.03125 a 0.53251799,0.53251799 0 0 0 0.0312,-0.03125 c 0.0543,-0.05541 0.19656,-0.1567083 0.28125,-0.34375 0.14738,-0.325499 0.21274,-0.6859668 0.3125,-1.21875 0.18634,-0.995082 0.28125,-2.297209 0.28125,-3.78125 0,-1.484041 -0.0949,-2.786168 -0.28125,-3.78125 -0.0998,-0.532784 -0.16512,-0.893251 -0.3125,-1.21875 -0.0763,-0.168577 -0.18903,-0.248747 -0.25,-0.3125 a 0.53251799,0.53251799 0 0 0 -0.0312,-0.0625 c -6.1e-4,-7e-4 -0.0207,-0.02008 -0.0312,-0.03125 -0.004,-0.004 -0.0294,-0.02633 -0.0312,-0.03125 a 0.53251799,0.53251799 0 0 0 -0.0312,-0.03125 c 3e-5,2.1e-5 -0.0401,-0.01829 -0.0625,-0.03125 1.2e-4,9.4e-5 -0.0196,-0.02627 -0.0312,-0.03125 -0.0173,-0.0092 -0.0149,0.0071 -0.0312,0 A 0.53251799,0.53251799 0 0 0 172.5,-18.125 a 0.53251799,0.53251799 0 0 1 0,0.03125 c -0.0179,-0.006 -0.0148,-0.02744 -0.0312,-0.03125 -0.10129,-0.02339 -0.18356,-0.04058 -0.21875,-0.03125 0.0278,-0.0027 0.12598,1.56e-4 0.125,0 -4e-4,-6.4e-5 0.046,0.01074 0.0937,0.03125 a 0.53251799,0.53251799 0 0 0 -0.1875,-0.0625 l -13.71875,0 a 0.53251799,0.53251799 0 0 0 -0.0937,0 z M 172.5,-7.03125 c -0.0676,0.029015 -0.12557,0.062591 -0.125,0.0625 9.8e-4,-1.557e-4 -0.0972,0.00274 -0.125,0 0.0409,0.010842 0.12206,-0.019447 0.25,-0.0625 z" transform="matrix(0,-0.9334735,1.0473907,0,37.157846,165.55974)" id="L" opacity="0.8" fill="url(#B)"/>
  <path d="m 158.5625,-17.65625 a 0.01833932,0.01833932 0 0 0 0,0.03125 0.01833932,0.01833932 0 0 1 -0.0312,0 c 0,0 0.0312,0.03125 0.0312,0.03125 -0.005,0.0043 -0.026,-0.0044 -0.0312,0 -0.005,0.0044 -0.0264,-0.0037 -0.0312,0 -0.005,0.0037 0.003,0.02918 0,0.03125 -0.11311,0.117788 -0.12587,0.08586 -0.1875,0.21875 -0.12716,0.274181 -0.2165,0.571356 -0.3125,1.0625 -0.1809,0.925509 -0.28125,2.247643 -0.28125,3.71875 0,1.471108 0.10035,2.7932414 0.28125,3.71875 0.096,0.491145 0.18534,0.7883268 0.3125,1.0625 0.0616,0.1328902 0.0744,0.1009656 0.1875,0.21875 0.003,0.00207 -0.005,0.02753 0,0.03125 0.005,0.00372 0.026,-0.00443 0.0312,0 0.0106,0.00886 0.0267,0.025648 0.0312,0.03125 l 0,0.03125 13.71875,0 0,-0.03125 c 0.006,-0.00436 0.0207,0.00562 0.0312,0 0.005,-0.00281 0.0268,0.0019 0.0312,0 0.004,-0.0019 -8.2e-4,-0.03107 0,-0.03125 0.0803,-0.084708 0.11391,-0.087471 0.1875,-0.25 0.11016,-0.2433 0.18291,-0.5685687 0.28125,-1.09375 0.17726,-0.9466164 0.28125,-2.228764 0.28125,-3.6875 0,-1.458736 -0.10399,-2.740883 -0.28125,-3.6875 -0.0983,-0.525182 -0.17109,-0.850451 -0.28125,-1.09375 -0.0736,-0.162527 -0.10719,-0.165291 -0.1875,-0.25 -8.1e-4,-1.8e-4 0.004,-0.02935 0,-0.03125 -0.004,-0.0019 -0.026,0.0028 -0.0312,0 a 0.01833932,0.01833932 0 0 1 -0.0312,0 0.01833932,0.01833932 0 0 0 0,-0.03125 l -13.71875,0 z" transform="matrix(0,-0.9334735,1.0473907,0,37.157846,165.55974)" id="M" opacity="0.8" fill="none" stroke="url(#C)" stroke-linejoin="round" stroke-linecap="square" stroke-width="1.063"/>
  <path d="m 131.40625,-27.875 c -1.26031,0 -2.15629,0.755179 -2.59375,1.28125 -0.43746,0.526071 -0.65075,0.989415 -0.84375,1.46875 -0.386,0.958671 -0.6001,2.003964 -0.8125,3.25 -0.4248,2.492072 -0.6875,5.720985 -0.6875,9.3125 0,3.591515 0.2627,6.820428 0.6875,9.3125 0.2124,1.246036 0.4265,2.29132901 0.8125,3.25 0.193,0.4793355 0.40629,0.94267867 0.84375,1.46875 0.43746,0.5260713 1.33344,1.28125 2.59375,1.28125 l 35.78125,0 c 1.26031,0 2.15691,-0.7526407 2.59375,-1.28125 C 170.21809,0.94014069 170.43407,0.47972728 170.625,0 c 0.38186,-0.95945456 0.60457,-2.0049537 0.8125,-3.25 0.41586,-2.4900926 0.65625,-5.7252018 0.65625,-9.3125 0,-3.587298 -0.24039,-6.822407 -0.65625,-9.3125 -0.20793,-1.245046 -0.43064,-2.290545 -0.8125,-3.25 -0.19093,-0.479727 -0.40691,-0.940141 -0.84375,-1.46875 -0.43684,-0.528609 -1.33344,-1.28125 -2.59375,-1.28125 l -35.78125,0 z" transform="matrix(0,-0.8139535,1.0528787,0,37.226789,146.12847)" id="N" fill="url(#D)"/>
  <path d="m 131.40625,-26.78125 c -0.82676,0 -1.45187,0.516482 -1.75,0.875 -0.34804,0.418533 -0.50747,0.74037 -0.6875,1.1875 -0.33584,0.834099 -0.54101,1.805194 -0.75,3.03125 -0.41116,2.412054 -0.65625,5.586408 -0.65625,9.125 0,3.5385919 0.24509,6.7129458 0.65625,9.125 0.20899,1.226056 0.41416,2.197151 0.75,3.03125 0.18003,0.44712983 0.33946,0.76896644 0.6875,1.1875 0.29813,0.3585179 0.92324,0.875 1.75,0.875 l 35.78125,0 c 0.82822,0 1.45544,-0.5185633 1.75,-0.875 0.35161,-0.42547481 0.51233,-0.74737468 0.6875,-1.1875 0.3353,-0.8424788 0.54655,-1.8130294 0.75,-3.03125 0.4019,-2.4064762 0.625,-5.5861873 0.625,-9.125 0,-3.538813 -0.2231,-6.718523 -0.625,-9.125 -0.20345,-1.21822 -0.4147,-2.188771 -0.75,-3.03125 -0.17517,-0.440125 -0.33589,-0.762026 -0.6875,-1.1875 -0.29456,-0.356437 -0.92178,-0.875 -1.75,-0.875 l -35.78125,0 z" transform="matrix(0,-0.7960573,1.0530277,0,37.228661,143.54183)" id="O" fill="url(#E)"/>
  <path d="m 24,7.2462711 c -3.726468,-1e-7 -7.059663,0.1854239 -9.59375,0.5148817 -1.282819,0.1667783 -2.331596,0.3365597 -3.21875,0.6114221 -0.463464,0.1435957 -0.801964,0.2910095 -1.25,0.579242 -0.3021011,0.1943509 -0.6941978,0.5705461 -0.84375,1.0619441 0.1490654,0.490425 0.5398849,0.865237 0.84375,1.061943 0.440727,0.285306 0.77916,0.431663 1.25,0.579242 0.878329,0.275305 1.927679,0.440103 3.21875,0.611422 2.53996,0.337049 5.867515,0.514882 9.59375,0.514882 3.726236,0 7.05379,-0.177833 9.59375,-0.514882 1.29107,-0.171319 2.340421,-0.336117 3.21875,-0.611422 0.47084,-0.147579 0.809273,-0.293936 1.25,-0.579242 0.303866,-0.196706 0.694685,-0.571518 0.84375,-1.061943 C 38.756699,9.5223629 38.364601,9.1461674 38.0625,8.9518169 37.614464,8.6635848 37.275964,8.5161707 36.8125,8.3725749 35.925346,8.0977124 34.87657,7.9279312 33.59375,7.7611528 31.059663,7.4316949 27.726468,7.2462711 24,7.2462711 z" id="P" opacity="0.3" fill="#2e3436"/>
  <path d="m 24,21.25 c -3.726468,0 -7.059663,0.180065 -9.59375,0.5 -1.282819,0.161958 -2.331596,0.326832 -3.21875,0.59375 -0.463464,0.139445 -0.801964,0.251348 -1.25,0.53125 -0.3753377,0.234487 -0.90625,0.746939 -0.90625,1.40625 l 0,14.65625 c 2e-7,0.658149 0.5287206,1.137671 0.90625,1.375 0.440727,0.27706 0.77916,0.419186 1.25,0.5625 0.878329,0.267346 1.927679,0.427382 3.21875,0.59375 C 16.94621,41.796056 20.273765,42 24,42 c 3.726236,10e-7 7.05379,-0.203943 9.59375,-0.53125 1.29107,-0.166369 2.340421,-0.326402 3.21875,-0.59375 0.47084,-0.143316 0.809273,-0.28544 1.25,-0.5625 0.37753,-0.237329 0.90625,-0.716852 0.90625,-1.375 l 0,-14.65625 c 2e-6,-0.65931 -0.530912,-1.171763 -0.90625,-1.40625 -0.448036,-0.279902 -0.786536,-0.391805 -1.25,-0.53125 C 35.925346,22.076832 34.87657,21.911958 33.59375,21.75 31.059663,21.430064 27.726468,21.25 24,21.25 z" id="Q" opacity="0.8" fill="url(#I)"/>
  <path d="m 24,20.4785 c -3.772056,0 -7.167734,0.201284 -9.78125,0.53125 -1.30113,0.164266 -2.36565,0.321312 -3.375,0.625 -0.523471,0.157507 -1.0393579,0.360678 -1.5625,0.6875 -0.081593,0.05097 -0.1619256,0.12157 -0.25,0.1875 L 9.125,24.291 c 10e-8,-0.626767 0.5074116,-1.082853 0.875,-1.3125 0.440526,-0.275204 0.779864,-0.43045 1.21875,-0.5625 0.864318,-0.260048 1.931151,-0.399937 3.21875,-0.5625 2.527877,-0.319156 5.844025,-0.53125 9.5625,-0.53125 3.718473,0 7.034624,0.212094 9.5625,0.53125 1.287601,0.162563 2.354432,0.302452 3.21875,0.5625 0.438888,0.13205 0.778224,0.287295 1.21875,0.5625 0.36759,0.229648 0.875,0.685732 0.875,1.3125 l 0.09375,-1.78125 c -0.08807,-0.06593 -0.168407,-0.136526 -0.25,-0.1875 -0.523141,-0.326822 -1.039028,-0.529993 -1.5625,-0.6875 -1.009349,-0.303688 -2.073868,-0.460734 -3.375,-0.625 C 31.167733,20.679784 27.772055,20.4785 24,20.4785 z" id="R" opacity="0.8" fill="#9c8100"/>
  <path d="m 24,21.8125 c -3.694806,0 -6.996329,0.18785 -9.46875,0.5 -1.263371,0.159506 -2.259029,0.289511 -3.0625,0.53125 -0.433624,0.130466 -0.640144,0.255666 -1.03125,0.5 -0.247118,0.154379 -0.65625,0.5159 -0.65625,0.9375 l 0,15.90625 c 0.057591,0.0433 0.1032507,0.09168 0.15625,0.125 0.440727,0.27706 0.77916,0.419186 1.25,0.5625 0.878329,0.267346 1.927679,0.427382 3.21875,0.59375 C 16.94621,41.796056 20.273765,42 24,42 c 3.726236,10e-7 7.05379,-0.203943 9.59375,-0.53125 1.29107,-0.166369 2.340421,-0.326402 3.21875,-0.59375 0.47084,-0.143316 0.809273,-0.28544 1.25,-0.5625 0.053,-0.03332 0.09866,-0.0817 0.15625,-0.125 l 0,-15.90625 c 10e-7,-0.421599 -0.409133,-0.783121 -0.65625,-0.9375 -0.391107,-0.244335 -0.597626,-0.369534 -1.03125,-0.5 -0.803472,-0.241738 -1.799128,-0.371744 -3.0625,-0.53125 -2.472419,-0.31215 -5.773944,-0.5 -9.46875,-0.5 z" id="S" opacity="0.8" fill="none" stroke="url(#H)" stroke-linejoin="round" stroke-linecap="square"/>
  <path d="m 131.40625,-26.3125 c -0.64164,0 -1.16761,0.431777 -1.40625,0.71875 -0.30985,0.372614 -0.41925,0.629122 -0.59375,1.0625 -0.31443,0.780907 -0.51121,1.688725 -0.71875,2.90625 -0.40534,2.377887 -0.65625,5.546506 -0.65625,9.0625 0,3.5159939 0.25091,6.6846131 0.65625,9.0625 0.20754,1.2175247 0.40432,2.1253428 0.71875,2.90625 0.1745,0.43337812 0.2839,0.68988473 0.59375,1.0625 0.23864,0.28697311 0.76461,0.71875 1.40625,0.71875 l 35.78125,0 c 0.64372,0 1.17245,-0.43583052 1.40625,-0.71875 0.31522,-0.38143671 0.42531,-0.60803459 0.59375,-1.03125 0.31542,-0.7925305 0.51721,-1.7307339 0.71875,-2.9375 0.39593,-2.3707722 0.625,-5.5443904 0.625,-9.0625 0,-3.518109 -0.22907,-6.691727 -0.625,-9.0625 -0.20154,-1.206766 -0.40333,-2.144969 -0.71875,-2.9375 -0.16844,-0.423216 -0.27853,-0.649814 -0.59375,-1.03125 -0.2338,-0.28292 -0.76253,-0.71875 -1.40625,-0.71875 l -35.78125,0 z" transform="matrix(0,-0.7960573,1.0530277,0,37.228661,143.54183)" id="T" opacity="0.8" fill="none" stroke="url(#F)" stroke-linejoin="round" stroke-linecap="square" stroke-width="1.11"/>
  <path d="m 24,7.40625 c -3.726468,-1e-7 -7.059663,0.1800646 -9.59375,0.5 C 13.123431,8.0682078 12.074654,8.233082 11.1875,8.5 10.724036,8.6394453 10.385536,8.7825983 9.9375,9.0625 9.5621623,9.296987 9.03125,9.7781894 9.03125,10.4375 l 0,14.625 c 9.969001,-4.819591 21.095111,-9.121427 29.9375,-11.625 l 0,-3 C 38.968752,9.7781894 38.437838,9.2969866 38.0625,9.0625 37.614464,8.7825987 37.275964,8.6394454 36.8125,8.5 35.925346,8.2330819 34.87657,8.0682079 33.59375,7.90625 31.059663,7.5863145 27.726468,7.40625 24,7.40625 z" id="U" opacity="0.6" fill="url(#G)"/>
 </g>
</svg>
