<?xml version="1.0" encoding="UTF-8" standalone="no"?>
<svg
   xmlns:dc="http://purl.org/dc/elements/1.1/"
   xmlns:cc="http://creativecommons.org/ns#"
   xmlns:rdf="http://www.w3.org/1999/02/22-rdf-syntax-ns#"
   xmlns:svg="http://www.w3.org/2000/svg"
   xmlns="http://www.w3.org/2000/svg"
   height="12"
   width="12"
   xml:space="preserve"
   enable-background="new 0 0 1881.0868 1638.5602"
   viewBox="0 0 1881.0868 1881"
   y="0px"
   x="0px"
   id="Layer_1"
   version="1.1"><metadata
   id="metadata25"><rdf:RDF><cc:Work
       rdf:about=""><dc:format>image/svg+xml</dc:format><dc:type
         rdf:resource="http://purl.org/dc/dcmitype/StillImage" /><dc:title></dc:title></cc:Work></rdf:RDF></metadata><defs
   id="defs23" />
<g
   transform="translate(0,242.43982)"
   id="g18">
	<g
   transform="translate(0,-80)"
   style="fill:#0A83FD;fill-opacity:1"
   id="g4">
		<path
   style="fill:#0A83FD;fill-opacity:1"
   id="path2"
   d="m 1742.0912,585.2868 c -29.9087,0 -59.8146,-11.4094 -82.6335,-34.2283 -192.2029,-192.2029 -447.5186,-298.0547 -718.9142,-298.0547 -271.3956,0 -526.71,105.8518 -718.9143,298.0547 -45.6377,45.6378 -119.6293,45.6378 -165.2671,0 -45.6378,-45.6378 -45.6377,-119.6293 0,-165.2671 C 175.7746,266.379 314.9888,173.9024 470.136,110.9308 619.9693,50.1161 778.2378,19.2801 940.5434,19.2801 c 162.3056,0 320.574,30.836 470.4089,91.6507 155.1472,62.9716 294.36,155.4482 413.7725,274.8607 45.6377,45.6377 45.6377,119.6307 0,165.2671 -22.8189,22.8188 -52.7248,34.2282 -82.6336,34.2282 z" />
	</g>
	<g
   transform="translate(0,-80)"
   style="fill:#0A83FD;fill-opacity:1"
   id="g8">
		<path
   style="fill:#0A83FD;fill-opacity:1"
   id="path6"
   d="m 1501.6265,935.4893 c -29.9116,0.003 -59.8118,-11.4066 -82.6335,-34.2283 -127.9203,-127.9203 -297.8379,-198.3698 -478.4488,-198.3698 -180.6123,0 -350.5298,70.4495 -478.4502,198.3698 -45.6378,45.6378 -119.6293,45.6378 -165.2671,0 -45.6377,-45.6363 -45.6377,-119.6293 0,-165.267 172.0645,-172.0659 400.674,-266.8264 643.7173,-266.8264 243.0418,0 471.6528,94.7605 643.7159,266.8264 45.6377,45.6377 45.6377,119.6307 0,165.267 -22.8161,22.816 -52.7306,34.2255 -82.6336,34.2283 z" />
	</g>
	<g
   transform="translate(0,-80)"
   style="fill:#0A83FD;fill-opacity:1"
   id="g12">
		<path
   style="fill:#0A83FD;fill-opacity:1"
   id="path10"
   d="m 1181.0082,1269.0776 c -29.9087,0 -59.8147,-11.4094 -82.6335,-34.2283 -87.0272,-87.0231 -228.6309,-87.0273 -315.6625,0 -45.6377,45.6377 -119.6293,45.6377 -165.267,0 -45.6378,-45.6378 -45.6378,-119.6294 0,-165.2671 86.3553,-86.3553 201.1002,-133.9132 323.0976,-133.9132 122.0002,0 236.7451,47.5579 323.099,133.9132 45.6377,45.6377 45.6377,119.6293 0,165.2671 -22.8189,22.8189 -52.7248,34.2283 -82.6336,34.2283 z" />
	</g>
	<g
   transform="translate(0,-80)"
   style="fill:#0A83FD;fill-opacity:1"
   id="g16">
		<path
   style="fill:#0A83FD;fill-opacity:1"
   id="path14"
   d="m 940.5427,1619.2802 c -30.7632,0 -60.8846,-12.4766 -82.6207,-34.2397 -21.7661,-21.7661 -34.2411,-51.8574 -34.2411,-82.6222 0,-30.7646 12.4751,-60.8845 34.2411,-82.6506 21.7361,-21.7375 51.8575,-34.2112 82.6207,-34.2112 30.7632,0 60.886,12.4736 82.652,34.2112 21.7347,21.7347 34.2112,51.8575 34.2112,82.6506 0,30.7648 -12.4766,60.8846 -34.2112,82.6222 -21.766,21.7631 -51.8887,34.2397 -82.652,34.2397 z" />
	</g>
</g>
</svg>
