<?xml version="1.0" encoding="UTF-8" standalone="no"?>
<!-- Generator: Adobe Illustrator 19.1.0, SVG Export Plug-In . SVG Version: 6.00 Build 0)  -->

<svg
   xmlns:dc="http://purl.org/dc/elements/1.1/"
   xmlns:cc="http://creativecommons.org/ns#"
   xmlns:rdf="http://www.w3.org/1999/02/22-rdf-syntax-ns#"
   xmlns:svg="http://www.w3.org/2000/svg"
   xmlns="http://www.w3.org/2000/svg"
   xmlns:sodipodi="http://sodipodi.sourceforge.net/DTD/sodipodi-0.dtd"
   xmlns:inkscape="http://www.inkscape.org/namespaces/inkscape"
   version="1.1"
   id="DESIGNS"
   x="0px"
   y="0px"
   width="50"
   height="50"
   viewBox="0 0 50 50"
   xml:space="preserve"
   sodipodi:docname="icon.svg"
   inkscape:version="0.92.2 2405546, 2018-03-11"><defs
   id="defs31" /><sodipodi:namedview
   pagecolor="#ffffff"
   bordercolor="#666666"
   borderopacity="1"
   objecttolerance="10"
   gridtolerance="10"
   guidetolerance="10"
   inkscape:pageopacity="0"
   inkscape:pageshadow="2"
   inkscape:window-width="1920"
   inkscape:window-height="1080"
   id="namedview29"
   showgrid="false"
   fit-margin-top="0"
   fit-margin-left="0"
   fit-margin-right="0"
   fit-margin-bottom="0"
   inkscape:zoom="3.6875"
   inkscape:cx="-2.5254237"
   inkscape:cy="25"
   inkscape:window-x="1920"
   inkscape:window-y="0"
   inkscape:window-maximized="0"
   inkscape:current-layer="DESIGNS" />
<title
   property="dc:title"
   id="title2">to lie</title><desc
   property="dc:description"
   id="desc4">An icon for &quot;lie&quot; from the Fandom series on to [icon]. Downloaded from http://www.toicon.com/icons/fandom_lie by 127.0.0.1 on 2017-07-10. Licensed CC-BY, see http://toicon.com/license/ for details.</desc>
<g
   id="g24"
   transform="translate(-7,-7)">
	<g
   id="g10">
		<path
   class="fandom_acht"
   d="M 32,7 C 18.193,7 7,18.193 7,32 H 57 C 57,18.193 45.807,7 32,7 Z"
   style="fill:#6bc4d2"
   id="path6"
   inkscape:connector-curvature="0" />
		<path
   class="fandom_zeven"
   d="M 32,57 C 45.807,57 57,45.807 57,32 H 7 c 0,13.807 11.193,25 25,25 z"
   style="fill:#508d9b"
   id="path8"
   inkscape:connector-curvature="0" />
	</g>
	<g
   id="g22">
		<path
   class="fandom_elf"
   d="m 52.812,14.117 -21.819,4.098 c -0.023,0.421 -0.117,0.822 -0.263,1.198 4.062,0.445 1.934,4.11 -0.389,4.264 -0.628,0.042 -1.256,-0.093 -1.926,-0.003 -0.83,0.112 -1.277,0.785 -2.009,1.073 -1.129,0.443 -3.046,0.008 -3.953,-1.734 -0.179,-0.344 -0.265,-1.239 -0.596,-1.43 C 21.185,21.195 20.64,20.673 20.332,20.034 19.52,20.176 16.021,20.945 16,21.57 v 22.25 c -0.004,1 5.739,6.496 14,4.188 L 53.362,37.146 C 53.707,36.979 54,36.629 54,36.246 V 15.008 c 0,0 -0.221,-1.103 -1.188,-0.891 z"
   style="fill:#4b322a"
   id="path12"
   inkscape:connector-curvature="0" />
		<path
   class="fandom_veertien"
   d="m 30.731,19.413 c -0.05,0.129 -0.107,0.256 -0.168,0.379 -0.657,1.309 -1.998,2.216 -3.562,2.216 -2.209,0 -4,-1.791 -4,-4 0,-0.231 0.02,-0.457 0.058,-0.677 0.006,-0.033 -1.002,0.005 -1.098,0.019 -1.315,0.203 -2.229,1.685 -1.514,2.898 0.334,0.566 0.846,1.008 1.411,1.334 0.331,0.191 0.418,1.087 0.596,1.43 0.907,1.742 2.824,2.177 3.953,1.734 0.732,-0.287 1.18,-0.961 2.009,-1.073 0.67,-0.09 1.298,0.044 1.926,0.003 2.32,-0.153 4.456,-3.818 0.389,-4.263 z"
   style="fill:#efeae0"
   id="path14"
   inkscape:connector-curvature="0" />
		<path
   class="fandom_twee"
   d="M 25.215,14.445 C 23.907,15.103 23,16.443 23,18.008 c 0,2.209 1.791,4 4,4 1.564,0 2.905,-0.907 3.562,-2.215 -3.434,1.724 -7.071,-1.915 -5.347,-5.348 z"
   style="fill:#be5652"
   id="path16"
   inkscape:connector-curvature="0" />
		<path
   class="fandom_een"
   d="m 30.107,15.488 c -0.489,0.854 -1.026,1.413 -1.08,1.468 -0.906,0.931 -2.37,-0.432 -1.432,-1.396 0.013,-0.014 0.506,-0.534 0.884,-1.27 -1.019,-0.406 -2.174,-0.393 -3.264,0.155 -1.725,3.434 1.914,7.071 5.347,5.347 0.271,-0.539 0.438,-1.14 0.438,-1.784 0,-0.955 -0.335,-1.832 -0.893,-2.52 z"
   style="fill:#ff786e"
   id="path18"
   inkscape:connector-curvature="0" />
		<path
   class="fandom_twaalf"
   d="m 27.596,15.561 c 0.027,-0.029 2.11,-2.227 0.975,-4.018 -0.713,-1.125 0.985,-2.184 1.689,-1.071 1.985,3.133 -1.1,6.349 -1.232,6.484 -0.907,0.931 -2.371,-0.432 -1.432,-1.395 z M 30,48.008 53.362,37.146 C 53.707,36.979 54,36.629 54,36.246 V 32.008 L 30,42.792 Z M 53.437,15.789 30.792,26.008 C 30.435,26.168 30.003,26.342 30,26.733 V 31.54 L 54,20.702 v -5.694 c 0,0 -0.045,0.526 -0.563,0.781 z M 30,39.792 54,29.008 V 23.702 L 30,34.54 Z"
   style="fill:#644638"
   id="path20"
   inkscape:connector-curvature="0" />
	</g>
</g>
<metadata
   id="metadata26"><work
     rdf:about=""><format>image/svg+xml</format><type
       rdf:resource="http://purl.org/dc/dcmitype/StillImage" /><license
       rdf:resource="http://creativecommons.org/licenses/by/4.0/" /><attributionname>Carol Liao</attributionname><attributionurl>http://www.toicon.com/icons/fandom_lie</attributionurl></work><rdf:RDF><cc:Work
       rdf:about=""><dc:format>image/svg+xml</dc:format><dc:type
         rdf:resource="http://purl.org/dc/dcmitype/StillImage" /><dc:title>to lie</dc:title></cc:Work></rdf:RDF></metadata></svg>