<?xml version="1.0" encoding="UTF-8" standalone="no"?>
<svg
   xmlns:dc="http://purl.org/dc/elements/1.1/"
   xmlns:cc="http://creativecommons.org/ns#"
   xmlns:rdf="http://www.w3.org/1999/02/22-rdf-syntax-ns#"
   xmlns:svg="http://www.w3.org/2000/svg"
   xmlns="http://www.w3.org/2000/svg"
   xmlns:sodipodi="http://sodipodi.sourceforge.net/DTD/sodipodi-0.dtd"
   xmlns:inkscape="http://www.inkscape.org/namespaces/inkscape"
   width="321.7508"
   height="168.11224"
   viewBox="0 0 85.1299 44.4797"
   version="1.1"
   id="svg28"
   sodipodi:docname="logo2.svg"
   inkscape:version="0.92.2 2405546, 2018-03-11"
   inkscape:export-filename="/home/thom/dev/cakeybar/docs/logo.svg.png"
   inkscape:export-xdpi="96"
   inkscape:export-ydpi="96">
  <metadata
     id="metadata34">
    <rdf:RDF>
      <cc:Work
         rdf:about="">
        <dc:format>image/svg+xml</dc:format>
        <dc:type
           rdf:resource="http://purl.org/dc/dcmitype/StillImage" />
      </cc:Work>
    </rdf:RDF>
  </metadata>
  <defs
     id="defs32" />
  <sodipodi:namedview
     pagecolor="#ffffff"
     bordercolor="#666666"
     borderopacity="1"
     objecttolerance="10"
     gridtolerance="10"
     guidetolerance="10"
     inkscape:pageopacity="0"
     inkscape:pageshadow="2"
     inkscape:window-width="1920"
     inkscape:window-height="1049"
     id="namedview30"
     showgrid="false"
     inkscape:zoom="1.3493784"
     inkscape:cx="91.056873"
     inkscape:cy="21.300488"
     inkscape:window-x="1920"
     inkscape:window-y="29"
     inkscape:window-maximized="0"
     inkscape:current-layer="svg28" />
  <path
     d="M1.88264 12.18848l.14746 23.88957 34.3597 6.93093.14746-24.47944c-16.7816-3.43015-18.17464-3.51907-34.65462-6.34106z"
     fill="none"
     stroke="#60008b"
     stroke-width=".67496"
     id="path2" />
  <path
     d="m 35.56831,11.0529 c -12.1909,0.11804 -28.2386,1.084 -33.68586,1.1355 18.80418,6.8007 16.087216,13.865299 34.5075,30.82033 0,0 15.96724,2.04315 16.06666,-7.13485 0.10176,-9.39167 0,-15.11959 0,-15.11959 -0.04744,-6.80401 -0.45678,-7.22437 -2.153,-8.55646 -0.1647,-0.12934 -0.41768,-0.24545 -0.74378,-0.35007 -0.41492,3.53566 -3.4098,6.20156 -6.96972,6.20413 -3.86895,-4.6e-4 -7.00876,-3.13007 -7.0218,-6.99899 z"
     id="path4"
     inkscape:connector-curvature="0"
     style="fill:none;stroke:#60008b;stroke-width:0.75299001"
     sodipodi:nodetypes="ccccccccc" />
  <path
     d="M35.71657 11.20463a204.65429 204.65429 0 0 0-1.72756.01785c-5.96711.08607-8.50589.46571-19.5783.92973-4.05633.17-9.95018.10425-10.1665.10909-.21634.00486 4.67953.67715 7.94854 1.23914 3.269.562 7.3984 1.2883 9.17628 1.6135 3.13782.574 15.0332 2.92086 15.41165 3.04059.18025.05702.18524.55937.11404 12.24463l-.07438 12.18512.2514.05752c.13818.03181.57934.0758.9808.09768.40146.02191 1.56941.02107 2.5953-.00203 4.7509-.1068 7.8468-1.02904 9.72073-2.89579.79815-.7951 1.19294-1.45971 1.47715-2.48671.16448-.59433.17951-1.4689.17554-10.1913-.00455-10.06652-.0517-11.3069-.48346-12.70477-.25297-.81902-.98563-1.6542-1.795-2.0464-.04046-.0196-.09138-.03864-.13586-.05801a7.02266 7.02266 0 0 1-6.8775 5.60717 7.02266 7.02266 0 0 1-7.01287-6.757z"
     id="path6"
     style="fill:#60008b;fill-opacity:1;opacity:0.99"
     paint-order="markers fill stroke"
     stroke-linecap="round"
     stroke-width=".38001"
     stroke="#60008b" />
  <path
     d="M2.87408 13.40271v21.84552l32.5858 6.62144V19.45064z"
     fill="none"
     stroke="#60008b"
     stroke-width=".20645"
     id="path8" />
  <path
     d="M19.20832 39.17513c-9.23351-1.86303-16.7941-3.3928-16.8013-3.3995-.0154-.01431-.16891-23.14649-.15366-23.15429.0107-.00546 11.21906 1.89798 13.98313 2.37469 4.42172.76259 8.92032 1.61227 14.91127 2.81641 2.15066.43227 4.1625.83656 4.47077.89843l.56047.11248-.00101.26284c-.01612 3.80216-.1552 23.4544-.16606 23.46348-.00842.00702-7.57-1.51152-16.8035-3.37454zm16.39717-8.50017v-11.3277L19.22135 16.3088c-9.01127-1.67114-16.40173-3.0374-16.42324-3.0361-.0215.00124-.03909 4.97036-.03907 11.0424l.00002 11.04007 16.3059 3.31854c8.96826 1.8252 16.3587 3.32089 16.42322 3.32375l.11731.00523z"
     stroke="#60008b"
     stroke-width=".26898"
     stroke-linecap="round"
     id="path10"
     style="fill:#60008b;fill-opacity:1" />
  <path
     d="m 2.30057,20.2327 33.327668,7.259976 M 2.6134,27.58405 36.20001,34.871232"
     id="path12"
     inkscape:connector-curvature="0"
     style="fill:none;stroke:#60008b;stroke-width:1.29920006"
     sodipodi:nodetypes="cccc" />
  <path
     d="M19.09386 23.21287C10.25325 21.2721 3.01172 19.68306 3.00158 19.6817c-.01013-.00148-.01843-1.38332-.01843-3.07102 0-2.9059.00694-3.0667.13125-3.0342.0722.01887 7.35519 1.37483 16.18444 3.01323l16.05319 2.9789v3.5945c0 2.83072-.01957 3.5928-.09216 3.58648-.0507-.00445-7.3254-1.59592-16.16601-3.5367z"
     fill="#ff95ff"
     stroke="#60008b"
     stroke-width=".46428"
     stroke-linecap="square"
     stroke-linejoin="bevel"
     paint-order="stroke markers fill"
     id="path14" />
  <path
     d="M19.14916 38.41413l-16.166-3.28451v-3.37495c0-1.85622.01665-3.37494.03704-3.37494.0841 0 32.28459 7.00655 32.30798 7.02994.014.014.0168 1.43476.00624 3.15723l-.01924 3.13175z"
     fill="#ff95ff"
     stroke="#60008b"
     stroke-width=".464"
     stroke-linecap="round"
     paint-order="stroke markers fill"
     id="path16" />
  <path
     d="M42.65605 5.36644a5.46207 5.46207 0 0 0-5.46233 5.46234 5.46207 5.46207 0 0 0 5.46233 5.46183 5.46207 5.46207 0 0 0 5.46184-5.46183 5.46207 5.46207 0 0 0-5.46184-5.46234zm-.88758 1.57533a1.8727 1.8727 0 0 1 1.87285 1.87285 1.8727 1.8727 0 0 1-1.87285 1.87284 1.8727 1.8727 0 0 1-1.87284-1.87284 1.8727 1.8727 0 0 1 1.87284-1.87285z"
     fill="#d73939"
     paint-order="stroke markers fill"
     id="path18" />
  <g
     fill="#26ff61"
     id="g24">
    <path
       d="M44.32318.90107a6.5686 6.5686 0 0 0-.42259.02211c-.07249 2.14052.8658 3.32362 2.08683 3.8762.03808-1.03862.36641-2.0845 1.12428-2.89717-.56472-.59742-1.43851-1.02782-2.78852-1.00114z"
       id="path20" />
    <path
       d="M46.5812 5.63363c-.18806-2.01955.70956-4.36418 4.02466-4.44835.6691 4.62367-4.02466 4.44835-4.02466 4.44835z"
       id="path22" />
  </g>
  <path
     d="M19.0624 30.4598L3.0343 26.96786l-.02344-2.94527c-.02221-2.7893-.01504-2.94307.13545-2.90371.0874.02285 7.35066 1.61515 16.14058 3.53844l15.98168 3.4969.02351 2.90928c.01861 2.3016-.00003 2.90708-.08904 2.89874-.06181-.00578-7.32516-1.5819-16.14061-3.50246z"
     fill="#ffe680"
     stroke="#d753b7"
     stroke-width=".20024"
     stroke-linecap="square"
     stroke-linejoin="bevel"
     paint-order="stroke markers fill"
     id="path26" />
  <flowRoot
     xml:space="preserve"
     id="flowRoot815"
     style="font-style:normal;font-weight:normal;font-size:40px;line-height:1.25;font-family:sans-serif;letter-spacing:0px;word-spacing:0px;fill:#000000;fill-opacity:1;stroke:none;stroke-width:1.51181102;stroke-linecap:round;stroke-linejoin:miter;stroke-miterlimit:4;stroke-dasharray:none;stroke-dashoffset:0;paint-order:markers fill stroke"
     transform="matrix(0.51402646,0,0,0.51402646,-139.58891,-81.137597)"><flowRegion
       id="flowRegion817"
       style="stroke-width:1.51181102;stroke-linecap:round;stroke-linejoin:miter;stroke-miterlimit:4;stroke-dasharray:none;stroke-dashoffset:0;paint-order:markers fill stroke"><rect
         id="rect819"
         width="447.14285"
         height="222.85715"
         x="275.71429"
         y="182.51968"
         style="stroke-width:1.51181102;stroke-linecap:round;stroke-linejoin:miter;stroke-miterlimit:4;stroke-dasharray:none;stroke-dashoffset:0;paint-order:markers fill stroke" /></flowRegion><flowPara
       id="flowPara821"
       style="font-style:normal;font-variant:normal;font-weight:bold;font-stretch:normal;font-size:40px;font-family:Inconsolata;-inkscape-font-specification:'Inconsolata, Bold';font-variant-ligatures:normal;font-variant-caps:normal;font-variant-numeric:normal;font-feature-settings:normal;text-align:start;writing-mode:lr-tb;text-anchor:start;fill:none;stroke:#000000;stroke-width:1.51181102;stroke-linecap:round;stroke-linejoin:miter;stroke-miterlimit:4;stroke-dasharray:none;stroke-dashoffset:0;stroke-opacity:1;paint-order:markers fill stroke"><flowSpan
         style="fill:#ffffff;fill-opacity:1;stroke:#0085bd;stroke-opacity:1"
         id="flowSpan957">cakey</flowSpan><flowSpan
         style="font-style:normal;font-variant:normal;font-weight:bold;font-stretch:normal;font-size:40px;font-family:Inconsolata;-inkscape-font-specification:'Inconsolata, Bold';font-variant-ligatures:normal;font-variant-caps:normal;font-variant-numeric:normal;font-feature-settings:normal;text-align:start;writing-mode:lr-tb;text-anchor:start;fill:#ff9ae3;fill-opacity:1;stroke:#ff9ae3;stroke-width:1.51181102;stroke-linecap:round;stroke-linejoin:miter;stroke-miterlimit:4;stroke-dasharray:none;stroke-dashoffset:0;stroke-opacity:1;paint-order:markers fill stroke"
         id="flowSpan823">bar</flowSpan></flowPara></flowRoot></svg>
