<?xml version="1.0" encoding="UTF-8" standalone="no"?>
<!-- Created with Inkscape (http://www.inkscape.org/) -->

<svg
   xmlns:dc="http://purl.org/dc/elements/1.1/"
   xmlns:cc="http://creativecommons.org/ns#"
   xmlns:rdf="http://www.w3.org/1999/02/22-rdf-syntax-ns#"
   xmlns:svg="http://www.w3.org/2000/svg"
   xmlns="http://www.w3.org/2000/svg"
   xmlns:xlink="http://www.w3.org/1999/xlink"
   xmlns:sodipodi="http://sodipodi.sourceforge.net/DTD/sodipodi-0.dtd"
   xmlns:inkscape="http://www.inkscape.org/namespaces/inkscape"
   id="svg5378"
   sodipodi:docname="disk.svg"
   viewBox="0 -1 11.552742 12.799757"
   version="1.1"
   inkscape:version="0.92.2 2405546, 2018-03-11"
   width="11.596"
   height="12.799748">
  <defs
     id="defs3">
    <linearGradient
       id="linearGradient6035">
      <stop
         id="stop6037"
         style="stop-color:#ffffff"
         offset="0" />
      <stop
         id="stop6039"
         style="stop-color:#ffffff;stop-opacity:0"
         offset="1" />
    </linearGradient>
    <filter
       id="filter6093"
       height="1.3855"
       width="1.1285"
       y="-0.19277"
       x="-0.064257003"
       inkscape:collect="always"
       style="color-interpolation-filters:sRGB">
      <feGaussianBlur
         id="feGaussianBlur6095"
         stdDeviation="0.89250425"
         inkscape:collect="always" />
    </filter>
    <linearGradient
       id="linearGradient6110"
       y2="511.97"
       spreadMethod="reflect"
       gradientUnits="userSpaceOnUse"
       x2="286.63"
       gradientTransform="matrix(1.1818,0,0,1.1818,-30.649,-69.394)"
       y1="511.97"
       x1="269.97"
       inkscape:collect="always">
      <stop
         id="stop5497"
         style="stop-color:#c6c6c6"
         offset="0" />
      <stop
         id="stop5501"
         style="stop-color:#e3e3e3"
         offset=".20485" />
      <stop
         id="stop5499"
         style="stop-color:#a5a5a8"
         offset="1" />
    </linearGradient>
    <linearGradient
       id="linearGradient6112"
       y2="527.34003"
       gradientUnits="userSpaceOnUse"
       x2="286.63"
       y1="518.56"
       x1="282.35999"
       inkscape:collect="always">
      <stop
         id="stop5468"
         style="stop-color:#e3e3e3"
         offset="0" />
      <stop
         id="stop5470"
         style="stop-color:#a5a5a8"
         offset="1" />
    </linearGradient>
    <linearGradient
       id="linearGradient6114"
       y2="520.33002"
       xlink:href="#linearGradient6035"
       spreadMethod="reflect"
       gradientUnits="userSpaceOnUse"
       x2="327.78"
       gradientTransform="translate(0,0.25)"
       y1="522.60999"
       x1="308.5"
       inkscape:collect="always" />
    <linearGradient
       id="linearGradient6116"
       y2="520.33002"
       xlink:href="#linearGradient6035"
       spreadMethod="reflect"
       gradientUnits="userSpaceOnUse"
       x2="327.78"
       gradientTransform="translate(0,12)"
       y1="522.60999"
       x1="308.5"
       inkscape:collect="always" />
    <linearGradient
       id="linearGradient6118"
       y2="520.33002"
       xlink:href="#linearGradient6035"
       spreadMethod="reflect"
       gradientUnits="userSpaceOnUse"
       x2="327.78"
       gradientTransform="translate(0,22)"
       y1="522.60999"
       x1="308.5"
       inkscape:collect="always" />
  </defs>
  <sodipodi:namedview
     id="base"
     bordercolor="#666666"
     inkscape:pageshadow="2"
     inkscape:window-y="0"
     pagecolor="#ffffff"
     inkscape:window-height="1080"
     inkscape:window-maximized="0"
     inkscape:zoom="5.6568544"
     inkscape:window-x="1920"
     showgrid="false"
     borderopacity="1.0"
     inkscape:current-layer="layer1"
     inkscape:cx="-11.667567"
     inkscape:cy="-14.076785"
     inkscape:window-width="1920"
     inkscape:pageopacity="0.0"
     inkscape:document-units="mm"
     scale-x="3.77953"
     fit-margin-top="0"
     fit-margin-left="0"
     fit-margin-right="0"
     fit-margin-bottom="0"
     viewbox-width="185.99" />
  <g
     id="layer1"
     inkscape:label="Layer 1"
     inkscape:groupmode="layer"
     transform="translate(-373.40473,-607.277)">
    <g
       id="g6097"
       transform="matrix(0.26083271,0,0,0.26083271,298.81548,474.07517)">
      <ellipse
         id="path6079"
         style="fill:#2e3436;filter:url(#filter6093)"
         transform="matrix(1.1818,0,0,1.1818,-30.649,-65.984)"
         cx="286.6308"
         cy="521.77954"
         rx="16.667517"
         ry="5.5558391" />
      <path
         id="path5488"
         sodipodi:nodetypes="cccssscccc"
         style="fill:url(#linearGradient6110)"
         d="m 288.41,517.5 v 30.092 h 0.125 c -0.0806,0.24126 -0.125,0.47032 -0.125,0.71875 0,3.6263 8.8086,6.5625 19.688,6.5625 10.8794,0 19.688,-2.9362 19.688,-6.5625 0,-0.24879 -0.0442,-0.47715 -0.125,-0.71875 h 0.125 V 517.5 h -39.375 z"
         inkscape:connector-curvature="0" />
      <ellipse
         id="path5460"
         style="fill:url(#linearGradient6112)"
         transform="matrix(1.1818,0,0,1.1818,-30.649,-99.394)"
         cx="286.6308"
         cy="521.77954"
         rx="16.667517"
         ry="5.5558391" />
      <path
         id="path6026"
         style="fill:#565656"
         d="m 288.38,539.09 c 0.14735,3.584 8.9318,6.4688 19.719,6.4688 10.756,0 19.492,-2.8677 19.688,-6.4375 -3.4515,2.9359 -10.959,4.9688 -19.688,4.9688 -8.7461,0 -16.277,-2.0544 -19.719,-5 z"
         inkscape:connector-curvature="0" />
      <path
         id="path6030"
         style="fill:url(#linearGradient6114)"
         d="m 288.38,517.34 c 0.14735,3.584 8.9318,6.4688 19.719,6.4688 10.756,0 19.492,-2.8677 19.688,-6.4375 -0.21572,0.18349 -0.44078,0.35509 -0.6875,0.53125 -0.009,0.0117 -0.0216,0.0196 -0.0312,0.0312 -2.2921,2.7774 -9.9035,4.8125 -18.969,4.8125 -9.122,0 -16.786,-2.0707 -19.031,-4.875 -0.0249,-0.0179 -0.038,-0.0446 -0.0625,-0.0625 -0.21872,-0.15969 -0.43159,-0.30323 -0.625,-0.46875 z"
         inkscape:connector-curvature="0" />
      <g
         id="g6071">
        <g
           id="g6067"
           transform="translate(0,-0.52315)">
          <path
             id="path6022"
             style="fill:#565656"
             d="m 288.38,529.09 c 0.14735,3.584 8.9318,6.4688 19.719,6.4688 10.756,0 19.492,-2.8677 19.688,-6.4375 -3.4515,2.9359 -10.959,4.9688 -19.688,4.9688 -8.7461,0 -16.277,-2.0544 -19.719,-5 z"
             inkscape:connector-curvature="0" />
          <path
             id="path6043"
             style="fill:url(#linearGradient6116)"
             d="m 288.38,529.09 c 0.14735,3.584 8.9318,6.4688 19.719,6.4688 10.756,0 19.492,-2.8677 19.688,-6.4375 -0.0497,0.0422 -0.10543,0.0838 -0.15625,0.125 -1.2422,3.2268 -9.5106,5.7188 -19.531,5.7188 -10.113,0 -18.468,-2.5112 -19.594,-5.7812 -0.0401,-0.0317 -0.0863,-0.0607 -0.125,-0.0937 z"
             inkscape:connector-curvature="0" />
        </g>
        <path
           id="path6054"
           style="fill:url(#linearGradient6118)"
           d="m 288.38,539.09 c 0.14735,3.584 8.9318,6.4688 19.719,6.4688 10.756,0 19.492,-2.8677 19.688,-6.4375 -0.0497,0.0422 -0.10543,0.0838 -0.15625,0.125 -1.2422,3.2268 -9.5106,5.7188 -19.531,5.7188 -10.113,0 -18.468,-2.5112 -19.594,-5.7812 -0.0401,-0.0317 -0.0863,-0.0607 -0.125,-0.0937 z"
           inkscape:connector-curvature="0" />
      </g>
      <path
         id="path6060"
         style="fill:#565656"
         d="m 288.5,549.94 c 1.126,3.27 9.481,5.7812 19.594,5.7812 10.021,0 18.289,-2.492 19.531,-5.7188 -3.5163,2.8678 -10.929,4.8438 -19.531,4.8438 -8.6478,0 -16.1,-2.0137 -19.594,-4.9062 z"
         inkscape:connector-curvature="0" />
    </g>
  </g>
  <metadata
     id="metadata32">
    <rdf:RDF>
      <cc:Work>
        <dc:format>image/svg+xml</dc:format>
        <dc:type
           rdf:resource="http://purl.org/dc/dcmitype/StillImage" />
        <cc:license
           rdf:resource="http://creativecommons.org/publicdomain/zero/1.0/" />
        <dc:publisher>
          <cc:Agent
             rdf:about="http://openclipart.org/">
            <dc:title>Openclipart</dc:title>
          </cc:Agent>
        </dc:publisher>
        <dc:title>database symbol</dc:title>
        <dc:date>2010-11-08T22:08:43</dc:date>
        <dc:description>database symbol in metallic style</dc:description>
        <dc:source>https://openclipart.org/detail/94723/database-symbol-by-rg1024</dc:source>
        <dc:creator>
          <cc:Agent>
            <dc:title>rg1024</dc:title>
          </cc:Agent>
        </dc:creator>
        <dc:subject>
          <rdf:Bag>
            <rdf:li>database</rdf:li>
            <rdf:li>server</rdf:li>
            <rdf:li>symbol</rdf:li>
          </rdf:Bag>
        </dc:subject>
      </cc:Work>
      <cc:License
         rdf:about="http://creativecommons.org/publicdomain/zero/1.0/">
        <cc:permits
           rdf:resource="http://creativecommons.org/ns#Reproduction" />
        <cc:permits
           rdf:resource="http://creativecommons.org/ns#Distribution" />
        <cc:permits
           rdf:resource="http://creativecommons.org/ns#DerivativeWorks" />
      </cc:License>
    </rdf:RDF>
  </metadata>
</svg>
